<?xml version="1.0" standalone="no"?>
<!DOCTYPE svg PUBLIC "-//W3C//DTD SVG 20010904//EN"
 "http://www.w3.org/TR/2001/REC-SVG-20010904/DTD/svg10.dtd">
<svg version="1.0" xmlns="http://www.w3.org/2000/svg"
 width="520.000000pt" height="520.000000pt" viewBox="0 0 520.000000 520.000000"
 preserveAspectRatio="xMidYMid meet">
<metadata>
Created by potrace 1.16, written by Peter Selinger 2001-2019
</metadata>
<g transform="translate(0.000000,520.000000) scale(0.100000,-0.100000)"
fill="#000000" stroke="none">
<path d="M2428 4330 c-2 -4 -50 -16 -108 -29 -677 -150 -1195 -678 -1340
-1366 -27 -128 -38 -411 -21 -540 20 -147 13 -137 90 -130 36 3 70 10 74 14 5
5 4 48 -2 97 -13 102 -17 340 -8 430 24 226 145 527 292 726 275 372 666 598
1121 648 108 12 171 10 354 -9 117 -12 153 -19 208 -37 23 -8 51 -14 61 -14
10 0 21 -3 25 -7 4 -5 11 -8 14 -8 43 -3 233 -88 331 -148 l64 -39 19 24 c9
12 18 27 18 31 0 5 11 23 25 42 l26 33 -63 40 c-192 121 -445 210 -683 242
-87 11 -492 11 -497 0z"/>
<path d="M2580 3723 c0 -5 -35 -15 -77 -22 -210 -35 -389 -122 -591 -288 -13
-10 4 -32 106 -140 66 -70 150 -157 185 -192 l65 -63 53 40 c30 22 78 52 106
66 49 24 158 55 193 53 8 0 34 3 58 7 26 5 42 4 42 -2 0 -6 23 -10 53 -9 30 0
80 -9 118 -21 36 -12 74 -21 85 -20 13 2 50 -29 119 -102 55 -58 107 -106 115
-108 8 -1 24 11 34 29 10 17 52 64 92 105 41 40 74 76 74 79 0 13 104 105 119
105 9 0 24 -18 34 -39 9 -21 30 -51 47 -67 16 -16 30 -36 30 -44 1 -24 24 -48
50 -52 57 -8 26 78 -78 217 -135 182 -319 318 -536 400 -92 34 -180 52 -301
60 -55 3 -121 8 -147 11 -27 3 -48 2 -48 -3z"/>
<path d="M3453 2996 c-24 -24 -43 -47 -43 -52 0 -5 -10 -16 -21 -24 -22 -16
-27 -20 -69 -69 -57 -67 -54 -60 -41 -110 18 -61 27 -241 13 -241 -5 0 -8 -9
-5 -19 13 -52 -62 -220 -134 -297 l-38 -42 188 -193 188 -194 45 50 c156 174
267 409 290 614 3 25 9 82 14 125 7 57 7 83 -1 93 -7 7 -9 32 -7 58 3 25 2 45
-2 45 -4 0 -11 28 -14 62 -8 69 -30 120 -49 112 -7 -2 -18 -17 -25 -33 -15
-34 -46 -71 -58 -71 -9 0 -54 64 -54 76 0 3 -9 13 -20 22 -11 10 -33 42 -49
72 -18 33 -36 56 -48 57 -10 1 -37 -17 -60 -41z"/>
<path d="M2558 3011 c-123 -40 -225 -130 -281 -248 -40 -87 -49 -209 -22 -309
44 -163 185 -292 354 -324 85 -16 81 -19 81 64 l0 74 -52 12 c-150 36 -239
139 -246 287 -4 60 0 80 20 125 48 104 135 171 245 186 l48 7 3 73 3 72 -48
-1 c-26 0 -74 -8 -105 -18z"/>
<path d="M4284 2552 c-7 -4 -13 -57 -16 -138 -3 -72 -8 -137 -13 -144 -5 -8
-10 -23 -11 -35 -6 -51 -49 -190 -91 -287 -100 -238 -271 -461 -478 -621 -135
-104 -246 -166 -435 -243 -30 -13 -110 -37 -160 -48 -8 -2 -33 -9 -55 -14
-136 -35 -541 -38 -625 -5 -8 4 -24 7 -35 8 -34 4 -208 52 -248 68 -20 9 -40
16 -42 17 -3 0 -42 19 -87 41 -115 57 -258 154 -353 238 -44 39 -85 71 -90 71
-6 0 -33 -22 -60 -50 l-49 -49 20 -22 c10 -12 60 -56 109 -97 619 -519 1488
-552 2149 -83 95 67 257 219 336 316 223 272 364 628 386 974 l7 98 -54 6
c-69 9 -91 8 -105 -1z"/>
</g>
</svg>
